<svg width="168" height="38" viewBox="0 0 168 38" fill="none" xmlns="http://www.w3.org/2000/svg">
<g clip-path="url(#clip0_506_3623)">
<path d="M39.6164 6.97314V9.96892C39.4626 9.96892 39.3029 9.96892 39.1403 9.96892C37.5492 9.96892 35.9552 9.96892 34.3642 9.96892C33.3853 9.96892 33.1605 10.1966 33.1605 11.1666C33.1605 11.7847 33.1605 12.4028 33.1605 13.0712H39.5809V16.3893H33.1812V29.579H28.5796V16.4248H23.907V13.1096H28.5619C28.5619 12.8139 28.5589 12.5625 28.5619 12.3141C28.5796 11.282 28.482 10.238 28.834 9.2355C29.2983 7.91949 30.2919 7.28071 31.6198 7.06778C31.7972 7.03821 31.9746 7.00863 32.155 6.97906C34.6422 6.97906 37.1293 6.97906 39.6164 6.97906V6.97314Z" fill="#F2F2F2"/>
<path d="M124.586 15.9698V7.08594H129.126V29.5764H124.578V25.0724C124.285 26.2051 123.744 27.1514 122.871 27.9174C121.789 28.8637 120.496 29.3191 119.109 29.5528C117.196 29.8751 115.283 29.8219 113.402 29.3665C110.415 28.6449 108.377 26.8705 107.588 23.851C106.884 21.1569 106.928 18.4717 107.957 15.8515C108.676 14.0209 109.992 12.7463 111.79 11.9567C113.659 11.1345 115.637 10.963 117.643 11.0635C119.204 11.1434 120.727 11.445 122.084 12.2879C123.327 13.0597 124.181 14.1096 124.436 15.5853C124.453 15.6829 124.509 15.7716 124.589 15.9668L124.586 15.9698ZM124.566 20.4383C124.566 19.4417 124.557 18.4421 124.566 17.4455C124.578 16.5169 124.113 15.9313 123.282 15.5853C122.215 15.1417 121.088 15.0323 119.946 14.9347C118.444 14.8075 116.954 14.8371 115.481 15.1447C113.718 15.5143 112.426 16.4666 111.976 18.2883C111.657 19.5866 111.663 20.9085 111.92 22.2186C112.266 23.9989 113.369 25.102 115.114 25.5545C116.602 25.9389 118.122 25.9803 119.651 25.8768C120.813 25.797 121.96 25.6846 123.066 25.2972C124.134 24.9216 124.557 24.339 124.56 23.2063C124.56 22.2837 124.56 21.361 124.56 20.4412L124.566 20.4383Z" fill="#F2F2F2"/>
<path d="M62.0951 20.4058C62.0448 21.9554 61.823 23.4489 61.1842 24.8595C60.3384 26.7345 58.9011 28.0031 57.0025 28.7454C54.5243 29.7154 51.9455 29.8692 49.3194 29.6593C47.5273 29.5143 45.7913 29.1831 44.1914 28.3225C42.068 27.184 40.8378 25.4007 40.3409 23.0762C39.9506 21.2516 39.9506 19.4269 40.3557 17.614C40.8319 15.47 41.9556 13.7577 43.8986 12.6369C45.5518 11.6846 47.3557 11.2913 49.2395 11.1316C50.801 10.9985 52.3507 11.031 53.9003 11.2351C55.6244 11.4628 57.2717 11.936 58.7089 12.9385C60.3266 14.0682 61.3232 15.6415 61.7224 17.5608C61.9176 18.4953 61.9768 19.4565 62.098 20.4058H62.0951ZM44.6764 20.3644C44.7207 20.873 44.7296 21.3876 44.8124 21.8903C45.0668 23.4577 45.8741 24.6052 47.4297 25.1286C49.6063 25.8591 51.8302 25.8118 54.0363 25.3475C55.5712 25.0251 56.7157 24.1409 57.1534 22.5617C57.4402 21.5236 57.4728 20.4649 57.3722 19.3855C57.1622 17.129 56.0059 15.8811 53.918 15.4168C52.1436 15.0205 50.3485 15.0293 48.5623 15.3339C47.2581 15.5557 46.0722 16.0615 45.3684 17.271C44.8154 18.2203 44.6646 19.2761 44.6734 20.3673L44.6764 20.3644Z" fill="#F2F2F2"/>
<path d="M83.6274 29.5793H79.0258V24.6702C78.8158 25.5692 78.5349 26.4268 77.9937 27.178C77.0976 28.423 75.8289 29.1121 74.3739 29.4374C72.1263 29.9401 69.8758 29.8928 67.6844 29.1416C65.079 28.2485 63.6151 26.4002 63.275 23.6795C63.2159 23.2033 63.1863 22.7183 63.1863 22.2392C63.1804 18.7318 63.1834 15.2274 63.1834 11.72C63.1834 11.5426 63.1834 11.3651 63.1834 11.167H67.7406C67.7406 11.3385 67.7406 11.513 67.7406 11.6845C67.7406 15.0086 67.7169 18.3356 67.7495 21.6596C67.7702 23.7327 68.6485 24.96 70.7541 25.4657C72.8568 25.9714 74.9772 25.9182 77.0532 25.2823C77.9523 25.0073 78.7212 24.5075 78.9696 23.502C79.0169 23.3157 79.0199 23.1146 79.0199 22.9194C79.0199 19.1725 79.0199 15.4226 79.0199 11.6757V11.17H83.6274V29.5823V29.5793Z" fill="#F2F2F2"/>
<path d="M157.034 22.5377C157.661 21.3399 158.259 20.1955 158.859 19.0539C160.196 16.5106 161.529 13.9673 162.878 11.4299C162.946 11.3028 163.135 11.1608 163.268 11.1608C164.827 11.1431 166.388 11.149 168 11.149C167.607 11.8765 167.237 12.5685 166.861 13.2576C166.01 14.8102 165.155 16.3598 164.3 17.9094C163.15 19.9944 162.017 22.0881 160.843 24.1583C160.219 25.2584 159.572 26.3467 158.859 27.3877C157.735 29.032 156.1 29.9369 154.18 30.3746C152.536 30.7502 150.862 30.83 149.188 30.8744C148.677 30.8892 148.162 30.8744 147.618 30.8744V27.018C148.78 27.018 149.931 27.0417 151.078 27.0121C152.122 26.9855 153.148 26.8228 154.08 26.2964C154.733 25.9268 155.26 25.4299 155.754 24.7527C154.967 24.7527 154.263 24.7409 153.559 24.7586C153.317 24.7645 153.196 24.6847 153.068 24.4806C150.439 20.3404 147.801 16.206 145.169 12.0687C144.992 11.7907 144.826 11.5039 144.634 11.1815C144.755 11.1667 144.853 11.146 144.948 11.146C146.465 11.146 147.982 11.1342 149.496 11.1579C149.676 11.1579 149.928 11.2998 150.025 11.4536C151.291 13.4291 152.533 15.4164 153.781 17.4037C154.819 19.0598 155.854 20.7189 156.892 22.375C156.916 22.4105 156.948 22.4401 157.037 22.5377H157.034Z" fill="#F2F2F2"/>
<path d="M90.1039 17.0046C89.9265 15.0439 91.0946 12.9767 92.9104 12.0245C93.9189 11.4951 94.9954 11.2526 96.1221 11.1284C97.6599 10.9569 99.1711 11.0544 100.662 11.4212C102.507 11.8707 104.021 12.8318 104.985 14.5027C105.512 15.4136 105.84 16.4309 105.852 17.4807C105.899 21.4228 105.896 25.365 105.908 29.3071C105.908 29.381 105.893 29.455 105.884 29.5673H101.312V29.0764C101.312 25.7819 101.294 22.4875 101.318 19.193C101.336 16.8981 100.144 15.6856 98.1715 15.2746C96.0541 14.831 93.9307 14.8753 91.8576 15.5851C91.0858 15.8512 90.5091 16.3333 90.1453 17.0667C90.1306 17.046 90.1158 17.0253 90.101 17.0076L90.1039 17.0046Z" fill="#F2F2F2"/>
<path d="M135.529 29.5822H130.962V11.1817H135.52V16.5552C135.715 15.8869 135.854 15.1682 136.129 14.5058C136.747 13.0212 137.906 12.0808 139.406 11.5573C140.896 11.0368 142.431 10.9392 144.001 11.1492V15.6C142.866 15.5054 141.757 15.3486 140.648 15.3427C139.462 15.3368 138.27 15.4551 137.158 15.9549C136.016 16.4665 135.505 17.2147 135.517 18.3828C135.546 21.9346 135.529 25.4834 135.529 29.0351V29.5852V29.5822Z" fill="#F2F2F2"/>
<path d="M90.1483 17.0668C90.1098 17.4838 90.0359 17.9037 90.0359 18.3207C90.027 21.902 90.03 25.4833 90.03 29.0647V29.5792H85.4047V11.1758H90.101V17.0047C90.1158 17.0254 90.1305 17.0461 90.1453 17.0638L90.1483 17.0668Z" fill="#F2F2F2"/>
<path d="M11.9536 7.96705C14.1536 7.96705 15.9371 6.18356 15.9371 3.98352C15.9371 1.78348 14.1536 0 11.9536 0C9.75352 0 7.97003 1.78348 7.97003 3.98352C7.97003 6.18356 9.75352 7.96705 11.9536 7.96705Z" fill="#F2F2F2"/>
<path d="M3.98352 13.9436C6.18356 13.9436 7.96705 12.1601 7.96705 9.96009C7.96705 7.76005 6.18356 5.97656 3.98352 5.97656C1.78348 5.97656 0 7.76005 0 9.96009C0 12.1601 1.78348 13.9436 3.98352 13.9436Z" fill="#F2F2F2"/>
<path d="M3.98352 25.8972C6.18356 25.8972 7.96705 24.1137 7.96705 21.9137C7.96705 19.7137 6.18356 17.9302 3.98352 17.9302C1.78348 17.9302 0 19.7137 0 21.9137C0 24.1137 1.78348 25.8972 3.98352 25.8972Z" fill="#F2F2F2"/>
<path d="M11.9536 19.9236C14.1536 19.9236 15.9371 18.1401 15.9371 15.9401C15.9371 13.74 14.1536 11.9565 11.9536 11.9565C9.75352 11.9565 7.97003 13.74 7.97003 15.9401C7.97003 18.1401 9.75352 19.9236 11.9536 19.9236Z" fill="#00E67E"/>
<path d="M11.9536 31.8772C14.1536 31.8772 15.9371 30.0937 15.9371 27.8937C15.9371 25.6936 14.1536 23.9102 11.9536 23.9102C9.75352 23.9102 7.97003 25.6936 7.97003 27.8937C7.97003 30.0937 9.75352 31.8772 11.9536 31.8772Z" fill="#00E67E"/>
<path d="M3.98352 37.8538C6.18356 37.8538 7.96705 36.0703 7.96705 33.8702C7.96705 31.6702 6.18356 29.8867 3.98352 29.8867C1.78348 29.8867 0 31.6702 0 33.8702C0 36.0703 1.78348 37.8538 3.98352 37.8538Z" fill="#00E67E"/>
</g>
<defs>
<clipPath id="clip0_506_3623">
<rect width="168" height="37.8538" fill="white"/>
</clipPath>
</defs>
</svg>
